# xmcd
#
# Track frame offsets:
#	150
#	14045
#	27826
#	43905
#	58111
#	83746
#	105652
#	116482
#	135729
#	155021
#	168351
#	187665
#	205312
#	220903
#	241635
#
# Disc length: 3440 seconds
#
# Revision: 1
# Processed by: cddbd v1.5.2PL0 Copyright (c) Steve Scherf et al.
# Submitted via: EasyCDDAExtractor 2010.6.0.0
#
DISCID=c90d6e0f
DTITLE=Yellow Moon - Across the border
DYEAR=2003
DGENRE=Bluegrasse
TTITLE0=C'est pas la peine de pleurer
TTITLE1=Washed my hands in muddy waters
TTITLE2=Man of many words
TTITLE3=At the greener side
TTITLE4=Across the border
TTITLE5=Parchman farm [Pick a ball of cotton]
TTITLE6=Laissez moi tranquille
TTITLE7=Yellow moon
TTITLE8=Bon temps
TTITLE9=The man I left behind
TTITLE10=You can't keep me here in Tennessee
TTITLE11=Flow little river
TTITLE12=Marie, Marie
TTITLE13=Frankie and Johnny 
TTITLE14=I know when I've had enough
EXTD=
EXTT0=uzuzfuf
EXTT1=uzuzfuf
EXTT2=uzuzfuf
EXTT3=uzuzfuf
EXTT4=uzuzfuf
EXTT5=uzuzfuf
EXTT6=uzuzfuf
EXTT7=uzuzfuf
EXTT8=uzuzfuf
EXTT9=uzuzfuf
EXTT10=uzuzfuf
EXTT11=uzuzfuf
EXTT12=uzuzfuf
EXTT13=uzuzfuf
EXTT14=uzuzfuf
PLAYORDER=
